<mxfile host="app.diagrams.net" modified="2021-06-09T09:05:42.182Z" agent="5.0 (Macintosh; Intel Mac OS X 10_15_7) AppleWebKit/537.36 (KHTML, like Gecko) Chrome/91.0.4472.77 Safari/537.36" etag="WiFSv1anKQWwrM1w7fRG" version="14.7.6" type="github">
  <diagram name="Page-1" id="03018318-947c-dd8e-b7a3-06fadd420f32">
    <mxGraphModel dx="1638" dy="798" grid="1" gridSize="10" guides="1" tooltips="1" connect="1" arrows="1" fold="1" page="1" pageScale="1" pageWidth="1100" pageHeight="850" background="#ffffff" math="0" shadow="0">
      <root>
        <mxCell id="0" />
        <mxCell id="1" parent="0" />
        <mxCell id="677b7b8949515195-1" value="" style="whiteSpace=wrap;html=1;rounded=0;shadow=0;labelBackgroundColor=none;strokeColor=#000000;strokeWidth=1;fillColor=none;fontFamily=Verdana;fontSize=12;fontColor=#000000;align=center;comic=1;" parent="1" vertex="1">
          <mxGeometry x="20" y="20" width="1060" height="810" as="geometry" />
        </mxCell>
        <mxCell id="677b7b8949515195-2" value="LOGO" style="whiteSpace=wrap;html=1;rounded=0;shadow=0;labelBackgroundColor=none;strokeWidth=1;fontFamily=Verdana;fontSize=28;align=center;comic=1;" parent="1" vertex="1">
          <mxGeometry x="40" y="40" width="80" height="50" as="geometry" />
        </mxCell>
        <mxCell id="677b7b8949515195-3" value="Search" style="strokeWidth=1;shadow=0;dashed=0;align=center;html=1;shape=mxgraph.mockup.forms.searchBox;strokeColor=#999999;mainText=;strokeColor2=#008cff;fontColor=#666666;fontSize=17;align=left;spacingLeft=3;rounded=0;labelBackgroundColor=none;comic=1;" parent="1" vertex="1">
          <mxGeometry x="670" y="50" width="220" height="30" as="geometry" />
        </mxCell>
        <mxCell id="677b7b8949515195-8" value="" style="whiteSpace=wrap;html=1;rounded=0;shadow=0;labelBackgroundColor=none;strokeWidth=1;fillColor=none;fontFamily=Verdana;fontSize=12;align=center;comic=1;" parent="1" vertex="1">
          <mxGeometry x="40" y="130" width="200" height="590" as="geometry" />
        </mxCell>
        <mxCell id="677b7b8949515195-9" value="" style="line;strokeWidth=1;html=1;rounded=0;shadow=0;labelBackgroundColor=none;fillColor=none;fontFamily=Verdana;fontSize=14;fontColor=#000000;align=center;comic=1;" parent="1" vertex="1">
          <mxGeometry x="20" y="90" width="1060" height="10" as="geometry" />
        </mxCell>
        <mxCell id="fHNu6VOcYiGWdMN5CCA5-1" value="" style="ellipse;whiteSpace=wrap;html=1;aspect=fixed;" vertex="1" parent="1">
          <mxGeometry x="1020" y="47.5" width="35" height="35" as="geometry" />
        </mxCell>
        <mxCell id="fHNu6VOcYiGWdMN5CCA5-4" value="Người dùng" style="rounded=1;whiteSpace=wrap;html=1;" vertex="1" parent="1">
          <mxGeometry x="50" y="140" width="180" height="40" as="geometry" />
        </mxCell>
        <mxCell id="fHNu6VOcYiGWdMN5CCA5-5" value="Người dùng" style="rounded=1;whiteSpace=wrap;html=1;" vertex="1" parent="1">
          <mxGeometry x="50" y="200" width="180" height="40" as="geometry" />
        </mxCell>
        <mxCell id="fHNu6VOcYiGWdMN5CCA5-6" value="Người dùng" style="rounded=1;whiteSpace=wrap;html=1;" vertex="1" parent="1">
          <mxGeometry x="50" y="260" width="180" height="40" as="geometry" />
        </mxCell>
        <mxCell id="fHNu6VOcYiGWdMN5CCA5-7" value="Người dùng" style="rounded=1;whiteSpace=wrap;html=1;" vertex="1" parent="1">
          <mxGeometry x="50" y="320" width="180" height="40" as="geometry" />
        </mxCell>
        <mxCell id="fHNu6VOcYiGWdMN5CCA5-8" value="Người dùng" style="rounded=1;whiteSpace=wrap;html=1;" vertex="1" parent="1">
          <mxGeometry x="50" y="380" width="180" height="40" as="geometry" />
        </mxCell>
        <mxCell id="fHNu6VOcYiGWdMN5CCA5-9" value="Người dùng" style="rounded=1;whiteSpace=wrap;html=1;" vertex="1" parent="1">
          <mxGeometry x="50" y="440" width="180" height="40" as="geometry" />
        </mxCell>
        <mxCell id="fHNu6VOcYiGWdMN5CCA5-10" value="Người dùng" style="rounded=1;whiteSpace=wrap;html=1;" vertex="1" parent="1">
          <mxGeometry x="50" y="500" width="180" height="40" as="geometry" />
        </mxCell>
        <mxCell id="fHNu6VOcYiGWdMN5CCA5-11" value="Người dùng" style="rounded=1;whiteSpace=wrap;html=1;" vertex="1" parent="1">
          <mxGeometry x="50" y="560" width="180" height="40" as="geometry" />
        </mxCell>
        <mxCell id="fHNu6VOcYiGWdMN5CCA5-12" value="Người dùng" style="rounded=1;whiteSpace=wrap;html=1;" vertex="1" parent="1">
          <mxGeometry x="50" y="620" width="180" height="40" as="geometry" />
        </mxCell>
        <mxCell id="fHNu6VOcYiGWdMN5CCA5-13" value="Người dùng" style="rounded=1;whiteSpace=wrap;html=1;" vertex="1" parent="1">
          <mxGeometry x="50" y="673" width="180" height="40" as="geometry" />
        </mxCell>
        <mxCell id="fHNu6VOcYiGWdMN5CCA5-14" value="Sectiton" style="rounded=1;whiteSpace=wrap;html=1;" vertex="1" parent="1">
          <mxGeometry x="280" y="130" width="720" height="110" as="geometry" />
        </mxCell>
        <mxCell id="fHNu6VOcYiGWdMN5CCA5-15" value="Section 1" style="rounded=1;whiteSpace=wrap;html=1;" vertex="1" parent="1">
          <mxGeometry x="280" y="270" width="720" height="200" as="geometry" />
        </mxCell>
        <mxCell id="fHNu6VOcYiGWdMN5CCA5-16" value="Section 2" style="rounded=1;whiteSpace=wrap;html=1;" vertex="1" parent="1">
          <mxGeometry x="280" y="520" width="720" height="240" as="geometry" />
        </mxCell>
      </root>
    </mxGraphModel>
  </diagram>
</mxfile>
